<svg xmlns="http://www.w3.org/2000/svg" viewBox="0 0 40 40" role="img" aria-label="Developer Hub">
  <defs>
    <linearGradient id="gold" x1="0%" y1="0%" x2="100%" y2="100%">
      <stop offset="0%" stop-color="#F4E4A6"/>
      <stop offset="50%" stop-color="#D4AF37"/>
      <stop offset="100%" stop-color="#9A7B1A"/>
    </linearGradient>
    <linearGradient id="lapis" x1="0%" y1="0%" x2="100%" y2="100%">
      <stop offset="0%" stop-color="#1E3A5F"/>
      <stop offset="100%" stop-color="#0A1628"/>
    </linearGradient>
  </defs>
  <rect width="40" height="40" rx="8" fill="url(#lapis)"/>
  <path fill="url(#gold)" d="M20 6c-1.5 0-2.8 1.2-2.8 2.7v2.1h-3.4c-.8 0-1.4.6-1.4 1.4v12.8c0 .8.6 1.4 1.4 1.4h12.4c.8 0 1.4-.6 1.4-1.4V12.2c0-.8-.6-1.4-1.4-1.4H22.8V8.7C22.8 7.2 21.5 6 20 6zm0 4.8c.7 0 1.2.5 1.2 1.2v1.6h-2.4v-1.6c0-.7.5-1.2 1.2-1.2z"/>
  <rect x="17.2" y="24.8" width="5.6" height="6.4" rx="1.2" fill="#F5EDD6" opacity="0.9"/>
</svg>
